<?xml version="1.0" encoding="UTF-8" standalone="no"?>
<svg
   xmlns:dc="http://purl.org/dc/elements/1.1/"
   xmlns:cc="http://creativecommons.org/ns#"
   xmlns:rdf="http://www.w3.org/1999/02/22-rdf-syntax-ns#"
   xmlns:svg="http://www.w3.org/2000/svg"
   xmlns="http://www.w3.org/2000/svg"
   xmlns:sodipodi="http://sodipodi.sourceforge.net/DTD/sodipodi-0.dtd"
   xmlns:inkscape="http://www.inkscape.org/namespaces/inkscape"
   inkscape:version="1.0 (4035a4fb49, 2020-05-01)"
   sodipodi:docname="diffbyword.svg"
   id="svg22"
   version="1.1"
   viewBox="0 0 448 512"
   role="img"
   class="svg-inline--fa fa-not-equal fa-w-14"
   data-icon="not-equal"
   data-prefix="fas"
   focusable="false"
   aria-hidden="true">
  <metadata
     id="metadata28">
    <rdf:RDF>
      <cc:Work
         rdf:about="">
        <dc:format>image/svg+xml</dc:format>
        <dc:type
           rdf:resource="http://purl.org/dc/dcmitype/StillImage" />
        <dc:title></dc:title>
      </cc:Work>
    </rdf:RDF>
  </metadata>
  <defs
     id="defs26" />
  <sodipodi:namedview
     inkscape:current-layer="svg22"
     inkscape:window-maximized="1"
     inkscape:window-y="-9"
     inkscape:window-x="-9"
     inkscape:cy="254.76627"
     inkscape:cx="224"
     inkscape:zoom="1.6210938"
     showgrid="false"
     id="namedview24"
     inkscape:window-height="1001"
     inkscape:window-width="1920"
     inkscape:pageshadow="2"
     inkscape:pageopacity="0"
     guidetolerance="10"
     gridtolerance="10"
     objecttolerance="10"
     borderopacity="1"
     bordercolor="#666666"
     pagecolor="#ffffff" />
  <path
     id="path20"
     d="M416 208c17.67 0 32-14.33 32-32v-32c0-17.67-14.33-32-32-32h-23.88l51.87-66.81c5.37-7.02 4.04-17.06-2.97-22.43L415.61 3.3c-7.02-5.38-17.06-4.04-22.44 2.97L311.09 112H32c-17.67 0-32 14.33-32 32v32c0 17.67 14.33 32 32 32h204.56l-74.53 96H32c-17.67 0-32 14.33-32 32v32c0 17.67 14.33 32 32 32h55.49l-51.87 66.81c-5.37 7.01-4.04 17.05 2.97 22.43L64 508.7c7.02 5.38 17.06 4.04 22.43-2.97L168.52 400H416c17.67 0 32-14.33 32-32v-32c0-17.67-14.33-32-32-32H243.05l74.53-96H416z"
     fill="currentColor" />
  <path
     id="path30"
     d="m 67.60213,510.2577 c -2.920769,-1.36486 -29.573814,-21.69744 -31.565542,-24.08014 -3.056242,-3.65618 -4.064219,-10.00443 -2.356867,-14.84358 0.568377,-1.61096 10.847892,-15.37313 27.450605,-36.75077 14.598077,-18.79648 26.541963,-34.32789 26.541963,-34.51426 0,-0.18635 -12.995763,-0.33883 -28.879478,-0.33883 -17.928228,0 -30.267475,-0.25163 -32.539759,-0.66356 C 15.081577,397.04129 5.1416496,388.11274 1.5823125,376.90602 0.69125743,374.1005 0.45706653,370.39164 0.22929692,355.47847 -0.10749933,333.4268 0.34109674,329.18334 3.7353549,322.31325 8.4592264,312.75198 16.91213,306.44788 27.259731,304.76898 c 2.568774,-0.41678 27.148228,-0.65701 69.66557,-0.68089 l 65.696389,-0.0369 37.13881,-47.92921 37.13882,-47.92922 -105.30267,-0.31973 C 16.597464,207.52386 25.020534,207.82497 17.2885,203.78681 8.41178,199.15083 1.963976,189.81256 0.62551749,179.65406 0.2107532,176.50612 0.05920484,167.65827 0.22929692,156.52153 0.45706653,141.60836 0.69125743,137.8995 1.5823125,135.09398 5.1416496,123.88726 15.081577,114.95871 26.253052,112.93344 28.795275,112.47257 72.90125,112.26988 170.6464,112.26988 h 140.73306 l 41.21528,-53.105135 c 22.66841,-29.207824 41.94007,-53.803786 42.82593,-54.6576936 4.24641,-4.0932456 11.78456,-5.21635787 17.01075,-2.5344385 1.52208,0.781087 9.01208,6.215098 16.64444,12.0755811 15.94281,12.241627 17.12019,13.623735 17.51196,20.557164 0.17617,3.117748 -0.0582,4.738546 -0.98274,6.797301 -0.66773,1.486851 -13.07636,17.970835 -27.57472,36.631076 l -26.36064,33.927715 15.32658,0.34014 c 13.6476,0.30288 15.72073,0.48556 18.92443,1.66757 10.09513,3.7246 17.34301,11.1945 20.49696,21.12482 0.89105,2.80552 1.12524,6.51438 1.35301,21.42755 0.17009,11.13674 0.0186,19.98459 -0.39622,23.13253 -1.33846,10.1585 -7.78626,19.49677 -16.66298,24.13275 -7.50132,3.91767 -4.39881,3.71178 -61.38366,4.07349 l -52.37819,0.33247 -37.1196,47.80723 -37.1196,47.80723 89.49779,0.322 c 97.67062,0.35141 90.81191,0.067 98.50326,4.08396 8.87672,4.63598 15.32452,13.97425 16.66298,24.13275 0.41016,3.11296 0.57325,12.11954 0.41888,23.13253 -0.23565,16.81125 -0.34789,18.30521 -1.65438,22.02088 -1.95738,5.5668 -4.10251,8.9943 -8.1829,13.07469 -4.05836,4.05836 -10.57051,7.4703 -16.20913,8.49252 -2.53226,0.45906 -42.16954,0.66652 -128.61687,0.67318 l -124.95659,0.01 -41.89809,54.00201 c -46.736644,60.23836 -43.96546,57.16657 -51.865761,57.49185 -3.225539,0.1328 -4.947931,-0.11655 -6.807509,-0.98551 z"
     style="fill:#008080;stroke-width:0.616867" />
</svg>
